<svg width="420" height="165" viewBox="0 0 420 165" fill="none" xmlns="http://www.w3.org/2000/svg">
<path d="M404.441 109.128C400.82 109.128 397.697 108.33 395.071 106.735C392.462 105.123 390.448 102.877 389.029 99.9955C387.626 97.0978 386.925 93.728 386.925 89.8861C386.925 86.0442 387.626 82.6581 389.029 79.7279C390.448 76.7814 392.421 74.486 394.949 72.8418C397.493 71.1813 400.462 70.3511 403.854 70.3511C405.811 70.3511 407.744 70.6767 409.652 71.3278C411.56 71.979 413.297 73.0371 414.863 74.5023C416.428 75.9511 417.676 77.8721 418.606 80.2651C419.535 82.6581 420 85.6047 420 89.1047V91.5466H391.035V86.5652H414.129C414.129 84.4489 413.705 82.5605 412.857 80.9C412.025 79.2395 410.834 77.929 409.285 76.9686C407.752 76.0081 405.941 75.5279 403.854 75.5279C401.554 75.5279 399.565 76.0976 397.885 77.2372C396.221 78.3604 394.941 79.8256 394.044 81.6326C393.147 83.4396 392.698 85.3768 392.698 87.4442V90.7652C392.698 93.5978 393.188 95.999 394.166 97.9687C395.161 99.9222 396.539 101.412 398.301 102.437C400.062 103.447 402.109 103.951 404.441 103.951C405.958 103.951 407.328 103.74 408.551 103.316C409.79 102.877 410.859 102.226 411.756 101.363C412.653 100.484 413.346 99.3932 413.835 98.0908L419.413 99.6536C418.826 101.542 417.839 103.203 416.453 104.635C415.066 106.051 413.354 107.158 411.315 107.956C409.277 108.737 406.985 109.128 404.441 109.128Z" fill="#3BBF74"/>
<path d="M354.162 85.7838V108.347H348.389V70.8394H353.966V76.7H354.456C355.336 74.7953 356.674 73.2651 358.468 72.1092C360.262 70.9371 362.578 70.3511 365.416 70.3511C367.96 70.3511 370.186 70.872 372.094 71.9139C374.002 72.9395 375.487 74.5023 376.547 76.6023C377.607 78.686 378.137 81.3233 378.137 84.514V108.347H372.363V84.9047C372.363 81.9581 371.597 79.6628 370.064 78.0186C368.531 76.3581 366.427 75.5279 363.752 75.5279C361.909 75.5279 360.262 75.9267 358.81 76.7244C357.375 77.5221 356.242 78.686 355.41 80.2163C354.578 81.7465 354.162 83.6023 354.162 85.7838Z" fill="#3BBF74"/>
<path d="M332.04 108.347V70.8394H337.814V108.347H332.04ZM334.976 64.5882C333.851 64.5882 332.88 64.2056 332.065 63.4405C331.266 62.6754 330.866 61.7556 330.866 60.6812C330.866 59.6068 331.266 58.687 332.065 57.9219C332.88 57.1567 333.851 56.7742 334.976 56.7742C336.101 56.7742 337.064 57.1567 337.863 57.9219C338.678 58.687 339.086 59.6068 339.086 60.6812C339.086 61.7556 338.678 62.6754 337.863 63.4405C337.064 64.2056 336.101 64.5882 334.976 64.5882Z" fill="#3BBF74"/>
<path d="M294.072 108.347V58.337H300.139V102.975H323.429V108.347H294.072Z" fill="#3BBF74"/>
<path d="M252.899 108.347V58.337H283.137V63.7092H258.966V80.607H281.571V85.9791H258.966V102.975H283.528V108.347H252.899Z" fill="white"/>
<path d="M236.368 70.8395C236.074 68.365 234.884 66.4441 232.796 65.0766C230.709 63.7092 228.148 63.0255 225.114 63.0255C222.896 63.0255 220.956 63.3836 219.292 64.0999C217.645 64.8162 216.356 65.8011 215.427 67.0546C214.513 68.3081 214.057 69.7325 214.057 71.3278C214.057 72.6627 214.375 73.8104 215.011 74.7709C215.663 75.7151 216.495 76.5046 217.506 77.1395C218.517 77.7581 219.577 78.2709 220.686 78.6779C221.795 79.0686 222.815 79.3861 223.744 79.6302L228.833 80.9977C230.138 81.3396 231.589 81.8117 233.188 82.414C234.802 83.0163 236.343 83.8384 237.811 84.8803C239.295 85.9059 240.519 87.2245 241.481 88.8361C242.443 90.4478 242.924 92.4257 242.924 94.7699C242.924 97.4723 242.215 99.9141 240.796 102.096C239.393 104.277 237.338 106.011 234.631 107.297C231.94 108.583 228.67 109.226 224.821 109.226C221.233 109.226 218.126 108.648 215.5 107.492C212.891 106.336 210.836 104.725 209.335 102.657C207.851 100.59 207.011 98.1885 206.815 95.4536H213.078C213.241 97.342 213.877 98.9048 214.986 100.142C216.112 101.363 217.531 102.275 219.243 102.877C220.972 103.463 222.831 103.756 224.821 103.756C227.137 103.756 229.216 103.382 231.059 102.633C232.902 101.868 234.362 100.809 235.438 99.4583C236.515 98.0909 237.053 96.4955 237.053 94.6722C237.053 93.0117 236.588 91.6606 235.658 90.6187C234.729 89.5768 233.506 88.7303 231.989 88.0792C230.472 87.428 228.833 86.8582 227.072 86.3698L220.907 84.6117C216.992 83.4884 213.894 81.8849 211.61 79.8012C209.327 77.7174 208.185 74.9907 208.185 71.6209C208.185 68.8209 208.944 66.379 210.461 64.2952C211.994 62.1952 214.049 60.5673 216.625 59.4115C219.219 58.2394 222.114 57.6533 225.31 57.6533C228.539 57.6533 231.41 58.2312 233.921 59.3871C236.433 60.5266 238.423 62.0894 239.891 64.0755C241.375 66.0615 242.158 68.3162 242.239 70.8395H236.368Z" fill="white"/>
<path d="M157.974 108.347V58.337H164.041V80.607H190.755V58.337H196.822V108.347H190.755V85.9791H164.041V108.347H157.974Z" fill="white"/>
<path fill-rule="evenodd" clip-rule="evenodd" d="M2 28.8064C13.4862 27.086 43.0058 19.5161 69.1944 3C81.8292 10.4552 113.301 26.0538 138.112 28.8064V82.1398C129.497 108.52 103.681 163 69.1944 163C36.4586 163 10.0404 109.667 2 82.1398L2 28.8064ZM27.844 78.6989H34.7357C34.1614 70.0968 37.1478 51.5161 53.688 46.0108V37.4086H86.4237V46.0108C98.8288 47.3871 103.079 68.3763 103.653 78.6989H112.268V87.3011H103.653C100.896 123.086 79.532 132.032 69.1944 132.032C44.3841 129.28 35.8843 101.065 34.7357 87.3011H27.844V78.6989Z" fill="#02385A"/>
<path d="M34.7357 87.3011C35.8843 101.065 44.3841 129.28 69.1944 132.032C79.532 132.032 100.896 123.086 103.653 87.3011H34.7357Z" fill="#3BBF74"/>
<path d="M34.7357 78.6989H27.844V87.3011H34.7357H103.653H112.268V78.6989H103.653C103.079 68.3763 98.8288 47.3871 86.4237 46.0108V37.4086H53.688V46.0108C37.1478 51.5161 34.1614 70.0968 34.7357 78.6989Z" fill="#F2F2F2"/>
<path d="M53.688 64.9355L53.688 37.4086M53.688 37.4086H86.4237M53.688 37.4086V46.0108C37.1478 51.5161 34.1614 70.0968 34.7357 78.6989H27.844V87.3011H34.7357M86.4237 37.4086V64.9355M86.4237 37.4086V46.0108C98.8288 47.3871 103.079 68.3763 103.653 78.6989H112.268V87.3011H103.653M34.7357 87.3011C35.8843 101.065 44.3841 129.28 69.1944 132.032C79.532 132.032 100.896 123.086 103.653 87.3011M34.7357 87.3011H103.653M2 28.8064C13.4862 27.086 43.0058 19.5161 69.1944 3C81.8292 10.4552 113.301 26.0538 138.112 28.8064V82.1398C129.497 108.52 103.681 163 69.1944 163C36.4586 163 10.0404 109.667 2 82.1398L2 28.8064Z" stroke="black" stroke-width="3.71526"/>
</svg>
